<svg width="20" height="20" viewBox="0 0 20 20" fill="none" xmlns="http://www.w3.org/2000/svg">
<path d="M0 9.6C0 5.0745 0 2.81177 1.40589 1.40589C2.81177 0 5.0745 0 9.6 0H10.4C14.9255 0 17.1882 0 18.5941 1.40589C20 2.81177 20 5.0745 20 9.6V10.4C20 14.9255 20 17.1882 18.5941 18.5941C17.1882 20 14.9255 20 10.4 20H9.6C5.0745 20 2.81177 20 1.40589 18.5941C0 17.1882 0 14.9255 0 10.4V9.6Z" fill="white" fill-opacity="0.5"/>
<path d="M10.6073 14.4C5.96074 14.4 3.31044 11.2468 3.20001 6H5.52756C5.60401 9.85105 7.31989 11.4823 8.67905 11.8186V6H10.8708V9.32132C12.2129 9.17838 13.6229 7.66486 14.0986 6H16.2902C15.925 8.05165 14.3959 9.56517 13.3086 10.1874C14.3959 10.6919 16.1374 12.012 16.8 14.4H14.3874C13.8693 12.8024 12.5782 11.5664 10.8708 11.3982V14.4H10.6073Z" fill="#090909"/>
</svg>
