<svg width="20" height="14" viewBox="0 0 20 14" fill="none" xmlns="http://www.w3.org/2000/svg">
<path d="M8 9.91558V4.08433L13.2 6.99995L8 9.91558Z" fill="#090909"/>
<path d="M19.5781 2.32322C19.4643 1.91247 19.2414 1.53796 18.9318 1.23718C18.6222 0.936403 18.2367 0.719899 17.8139 0.609339C16.2568 0.199951 10 0.199951 10 0.199951C10 0.199951 3.74319 0.199951 2.18613 0.609339C1.76333 0.719899 1.37783 0.936403 1.06822 1.23718C0.758609 1.53796 0.535749 1.91247 0.421943 2.32322C0.131206 3.86589 -0.00988125 5.43167 0.000537425 6.99995C-0.00988125 8.56824 0.131206 10.134 0.421943 11.6767C0.535749 12.0874 0.758609 12.4619 1.06822 12.7627C1.37783 13.0635 1.76333 13.28 2.18613 13.3906C3.74319 13.7999 10 13.7999 10 13.7999C10 13.7999 16.2568 13.7999 17.8139 13.3906C18.2367 13.28 18.6222 13.0635 18.9318 12.7627C19.2414 12.4619 19.4643 12.0874 19.5781 11.6767C19.8688 10.134 20.0099 8.56824 19.9995 6.99995C20.0099 5.43167 19.8688 3.86589 19.5781 2.32322ZM8.00011 9.91424V4.08567L13.1927 6.99995L8.00011 9.91424Z" fill="white" fill-opacity="0.5"/>
</svg>
